<svg width="32" height="32" viewBox="0 0 32 32" fill="none" xmlns="http://www.w3.org/2000/svg">
  <rect width="32" height="32" rx="8" fill="#2563eb"/>
  <path d="M21.924 20.282c-.412 1.037-1.416 1.718-2.524 1.718-2.67 0-5.184-1.037-7.082-2.924-1.887-1.887-2.924-4.412-2.924-7.076 0-1.108.681-2.112 1.718-2.524l.681-.268c.359-.143.681-.012.859.287l1.037 1.75c.179.299.131.681-.119.919l-.669.669c-.238.238-.298.597-.143.896.501 1.007 1.345 1.851 2.352 2.352.299.155.658.095.896-.143l.669-.669c.238-.25.62-.298.919-.119l1.75 1.037c.299.178.43.5.287.859l-.268.681z" fill="#fff"/>
</svg>
